<mxfile host="app.diagrams.net" modified="2023-06-05T17:57:32.566Z" agent="Mozilla/5.0 (Windows NT 6.1; rv:109.0) Gecko/20100101 Firefox/113.0" etag="smzu72EsuAlvAO9Yuonr" version="21.3.7" type="github">
  <diagram name="Страница 1" id="hY-OzMdAjXTSBBSGq0Nz">
    <mxGraphModel dx="1847" dy="684" grid="1" gridSize="10" guides="1" tooltips="1" connect="1" arrows="1" fold="1" page="1" pageScale="1" pageWidth="827" pageHeight="1169" math="0" shadow="0">
      <root>
        <mxCell id="0" />
        <mxCell id="1" parent="0" />
        <mxCell id="CdAaiHMQkdvQXape5lh_-2" style="edgeStyle=orthogonalEdgeStyle;rounded=0;orthogonalLoop=1;jettySize=auto;html=1;exitX=0.5;exitY=1;exitDx=0;exitDy=0;entryX=0.592;entryY=-0.011;entryDx=0;entryDy=0;entryPerimeter=0;" parent="1" source="CdAaiHMQkdvQXape5lh_-1" target="CdAaiHMQkdvQXape5lh_-3" edge="1">
          <mxGeometry relative="1" as="geometry">
            <mxPoint x="470" y="160" as="targetPoint" />
            <Array as="points">
              <mxPoint x="511" y="100" />
            </Array>
          </mxGeometry>
        </mxCell>
        <mxCell id="CdAaiHMQkdvQXape5lh_-1" value="start" style="ellipse;whiteSpace=wrap;html=1;" parent="1" vertex="1">
          <mxGeometry x="440" y="50" width="140" height="50" as="geometry" />
        </mxCell>
        <mxCell id="CdAaiHMQkdvQXape5lh_-3" value="&lt;div&gt;string [] array 1&lt;/div&gt;&lt;div&gt;string array 2&lt;/div&gt;&lt;div&gt;int count =0 &lt;br&gt;&lt;/div&gt;&lt;div&gt;&lt;br&gt;&lt;/div&gt;&lt;div&gt;&lt;br&gt;&lt;/div&gt;" style="shape=parallelogram;perimeter=parallelogramPerimeter;whiteSpace=wrap;html=1;fixedSize=1;" parent="1" vertex="1">
          <mxGeometry x="440" y="180" width="120" height="90" as="geometry" />
        </mxCell>
        <mxCell id="CdAaiHMQkdvQXape5lh_-4" value="" style="endArrow=classic;html=1;rounded=0;entryX=0.323;entryY=-0.1;entryDx=0;entryDy=0;entryPerimeter=0;exitX=0.5;exitY=1;exitDx=0;exitDy=0;" parent="1" source="CdAaiHMQkdvQXape5lh_-3" target="CdAaiHMQkdvQXape5lh_-5" edge="1">
          <mxGeometry width="50" height="50" relative="1" as="geometry">
            <mxPoint x="513" y="260" as="sourcePoint" />
            <mxPoint x="577" y="290" as="targetPoint" />
            <Array as="points" />
          </mxGeometry>
        </mxCell>
        <mxCell id="CdAaiHMQkdvQXape5lh_-5" value="" style="swimlane;startSize=0;" parent="1" vertex="1">
          <mxGeometry x="430" y="300" width="220" height="40" as="geometry" />
        </mxCell>
        <mxCell id="CdAaiHMQkdvQXape5lh_-6" value="for (int i=0, i&amp;lt;array1.Length; i++) " style="text;html=1;align=center;verticalAlign=middle;resizable=0;points=[];autosize=1;strokeColor=none;fillColor=none;" parent="CdAaiHMQkdvQXape5lh_-5" vertex="1">
          <mxGeometry x="10" y="5" width="200" height="30" as="geometry" />
        </mxCell>
        <mxCell id="CdAaiHMQkdvQXape5lh_-7" value="" style="endArrow=classic;html=1;rounded=0;" parent="1" edge="1">
          <mxGeometry width="50" height="50" relative="1" as="geometry">
            <mxPoint x="500" y="340" as="sourcePoint" />
            <mxPoint x="500" y="400" as="targetPoint" />
            <Array as="points">
              <mxPoint x="500" y="340" />
            </Array>
          </mxGeometry>
        </mxCell>
        <mxCell id="CdAaiHMQkdvQXape5lh_-8" value="if (array 1[i]. length&amp;lt;=3)" style="rhombus;whiteSpace=wrap;html=1;" parent="1" vertex="1">
          <mxGeometry x="430" y="400" width="140" height="120" as="geometry" />
        </mxCell>
        <mxCell id="CdAaiHMQkdvQXape5lh_-12" value="" style="endArrow=none;html=1;rounded=0;entryX=0;entryY=0.5;entryDx=0;entryDy=0;" parent="1" target="CdAaiHMQkdvQXape5lh_-8" edge="1">
          <mxGeometry width="50" height="50" relative="1" as="geometry">
            <mxPoint x="340" y="460" as="sourcePoint" />
            <mxPoint x="410" y="330" as="targetPoint" />
            <Array as="points">
              <mxPoint x="360" y="460" />
            </Array>
          </mxGeometry>
        </mxCell>
        <mxCell id="CdAaiHMQkdvQXape5lh_-13" value="" style="endArrow=classic;html=1;rounded=0;" parent="1" edge="1">
          <mxGeometry width="50" height="50" relative="1" as="geometry">
            <mxPoint x="120" y="460" as="sourcePoint" />
            <mxPoint x="120" y="360" as="targetPoint" />
          </mxGeometry>
        </mxCell>
        <mxCell id="CdAaiHMQkdvQXape5lh_-14" value="array 2 [count]=array1[i], count++" style="rounded=0;whiteSpace=wrap;html=1;" parent="1" vertex="1">
          <mxGeometry x="40" y="300" width="170" height="60" as="geometry" />
        </mxCell>
        <mxCell id="CdAaiHMQkdvQXape5lh_-15" value="" style="endArrow=classic;html=1;rounded=0;exitX=1;exitY=0.5;exitDx=0;exitDy=0;entryX=0;entryY=0.75;entryDx=0;entryDy=0;" parent="1" source="CdAaiHMQkdvQXape5lh_-14" target="CdAaiHMQkdvQXape5lh_-5" edge="1">
          <mxGeometry width="50" height="50" relative="1" as="geometry">
            <mxPoint x="360" y="380" as="sourcePoint" />
            <mxPoint x="410" y="330" as="targetPoint" />
          </mxGeometry>
        </mxCell>
        <mxCell id="CdAaiHMQkdvQXape5lh_-17" value="" style="endArrow=none;html=1;rounded=0;entryX=0.05;entryY=0.5;entryDx=0;entryDy=0;entryPerimeter=0;" parent="1" target="CdAaiHMQkdvQXape5lh_-16" edge="1">
          <mxGeometry width="50" height="50" relative="1" as="geometry">
            <mxPoint x="120" y="460" as="sourcePoint" />
            <mxPoint x="490" y="440" as="targetPoint" />
            <Array as="points">
              <mxPoint x="200" y="460" />
              <mxPoint x="290" y="460" />
            </Array>
          </mxGeometry>
        </mxCell>
        <mxCell id="CdAaiHMQkdvQXape5lh_-16" value="yes" style="text;html=1;align=center;verticalAlign=middle;resizable=0;points=[];autosize=1;strokeColor=none;fillColor=none;" parent="1" vertex="1">
          <mxGeometry x="300" y="445" width="40" height="30" as="geometry" />
        </mxCell>
        <mxCell id="CdAaiHMQkdvQXape5lh_-19" value="" style="endArrow=classic;html=1;rounded=0;exitX=0;exitY=0.5;exitDx=0;exitDy=0;" parent="1" source="CdAaiHMQkdvQXape5lh_-8" edge="1">
          <mxGeometry width="50" height="50" relative="1" as="geometry">
            <mxPoint x="430" y="440" as="sourcePoint" />
            <mxPoint x="430" y="340" as="targetPoint" />
          </mxGeometry>
        </mxCell>
        <mxCell id="CdAaiHMQkdvQXape5lh_-20" value="no" style="text;html=1;align=center;verticalAlign=middle;resizable=0;points=[];autosize=1;strokeColor=none;fillColor=none;" parent="1" vertex="1">
          <mxGeometry x="390" y="368" width="40" height="30" as="geometry" />
        </mxCell>
        <mxCell id="rHSiLA5YGg1brJYNM11Y-1" value="&lt;font style=&quot;font-size: 18px;&quot; face=&quot;Times New Roman&quot;&gt;Блок-схема для задания с массивом&lt;/font&gt;." style="text;html=1;align=center;verticalAlign=middle;resizable=0;points=[];autosize=1;strokeColor=none;fillColor=none;" vertex="1" parent="1">
          <mxGeometry x="-80" y="3" width="300" height="40" as="geometry" />
        </mxCell>
      </root>
    </mxGraphModel>
  </diagram>
</mxfile>
